<?xml version="1.0" encoding="UTF-8"?>
<svg width="18.999" height="14.351" fill="none" version="1.1" viewBox="0 0 1926.9 1441.5" xmlns="http://www.w3.org/2000/svg">
 <g id="SLIDERS--style" transform="translate(-.00037613 -1268.9)" fill="none" fill-rule="evenodd">
  <g id="netguru-sequence" visibility="inherit">
   <g id="ground-shadow" transform="translate(6,1601)" fill="#dedad9" data-svg-origin="0.1261153221130371 0.527188777923584">
    <path d="m943.06 1105.8-935.19-540.38c-11.477-6.6307-10.027-18.32 3.2237-25.977l921.67-532.56c13.246-7.6523 33.477-8.492 44.955-1.8655l935.19 540.38c11.477 6.6307 10.022 18.32-3.2279 25.977l-921.66 532.56c-13.25 7.6565-33.481 8.4961-44.955 1.8614"/>
   </g>
   <g id="ground" transform="translate(0,1255)" data-svg-origin="0.00037670135498046875 0.7279987335205078">
    <path d="m9.1181 544.02c-6.9843 8.1452-7.5674 15.708-7.5674 15.708l-0.57893 65.158 151.16-26.572-105.56-58.95s-29.914-4.1284-37.452 4.6574" fill="#dad6d0"/>
    <path d="m948.54 1174.5-935.69-539.87c-11.483-6.6203-10.032-18.299 3.2255-25.952l922.16-532.06c13.253-7.6493 33.495-8.4882 44.978-1.8638l935.69 539.87c11.483 6.6203 10.028 18.299-3.2296 25.948l-922.15 532.06c-13.257 7.6534-33.499 8.4882-44.978 1.8637" fill="#d2d0cc"/>
    <path d="m1852.4 634.96 74.512-6.2029v-72.41l-102.46 1.5497 27.946 77.063" fill="#cec9bf"/>
    <path d="m960.94 70.396c-8.0554 0.40086-16.284 2.496-22.822 6.2608l-927.09 533.61c-13.328 7.6741-14.787 19.386-3.2461 26.031l940.69 541.44c3.4818 2.0084 7.8114 3.2482 12.463 3.9053v-1111.2" fill="#dedad9"/>
    <path d="m948.54 1104.9-935.69-539.87c-11.483-6.6244-10.032-18.303 3.2255-25.952l922.16-532.06c13.253-7.6493 33.495-8.4882 44.978-1.8638l935.69 539.87c11.483 6.6203 10.028 18.299-3.2296 25.948l-922.15 532.06c-13.257 7.6534-33.499 8.4923-44.978 1.8637" fill="#f8f8f8"/>
   </g>
  </g>
 </g>
</svg>
