<svg width="9" height="20" viewBox="0 0 9 20" fill="none" xmlns="http://www.w3.org/2000/svg">
<path fill-rule="evenodd" clip-rule="evenodd" d="M0 3.33333C0 1.49238 1.43908 0 3.21429 0C4.98949 0 6.42857 1.49238 6.42857 3.33333V15.3333C6.42857 16.4379 5.56512 17.3333 4.5 17.3333C3.43488 17.3333 2.57143 16.4379 2.57143 15.3333V6C2.57143 5.63181 2.85925 5.33333 3.21429 5.33333C3.56933 5.33333 3.85714 5.63181 3.85714 6V15.3333C3.85714 15.7015 4.14496 16 4.5 16C4.85504 16 5.14286 15.7015 5.14286 15.3333V3.33333C5.14286 2.22876 4.27941 1.33333 3.21429 1.33333C2.14917 1.33333 1.28571 2.22876 1.28571 3.33333V15.3333C1.28571 17.1743 2.7248 18.6667 4.5 18.6667C6.2752 18.6667 7.71429 17.1743 7.71429 15.3333V6C7.71429 5.63181 8.0021 5.33333 8.35714 5.33333C8.71218 5.33333 9 5.63181 9 6V15.3333C9 17.9107 6.98528 20 4.5 20C2.01472 20 0 17.9107 0 15.3333V3.33333Z" fill="#979797"/>
</svg>
