<svg width="19" height="20" viewBox="0 0 19 20" fill="none" xmlns="http://www.w3.org/2000/svg">
<path fill-rule="evenodd" clip-rule="evenodd" d="M5.20921 10.3948C5.48816 10.1108 5.94042 10.1108 6.21936 10.3948L10 14.2442L13.7806 10.3948C14.0596 10.1108 14.5118 10.1108 14.7908 10.3948C15.0697 10.6788 15.0697 11.1393 14.7908 11.4234L10.5051 15.787C10.2261 16.071 9.77387 16.071 9.49492 15.787L5.20921 11.4234C4.93026 11.1393 4.93026 10.6788 5.20921 10.3948Z" fill="black"/>
<path fill-rule="evenodd" clip-rule="evenodd" d="M10 0C10.3945 3.51144e-08 10.7143 0.325611 10.7143 0.727273L10.7143 13.8182C10.7143 14.2198 10.3945 14.5455 10 14.5455C9.60551 14.5455 9.28571 14.2198 9.28571 13.8182V0.727273C9.28571 0.325611 9.60551 8.23447e-09 10 0Z" fill="black"/>
<path fill-rule="evenodd" clip-rule="evenodd" d="M0 17.8182C0 19.0232 0.98153 20 2.19231 20H16.8077C18.0185 20 19 19.0232 19 17.8182V6.18182C19 4.97683 18.0185 4 16.8077 4H14.6154C14.2118 4 13.8846 4.32561 13.8846 4.72727C13.8846 5.12893 14.2118 5.45455 14.6154 5.45455H16.8077C17.2113 5.45455 17.5385 5.78016 17.5385 6.18182V17.8182C17.5385 18.2198 17.2113 18.5455 16.8077 18.5455H2.19231C1.78871 18.5455 1.46154 18.2198 1.46154 17.8182V6.18182C1.46154 5.78016 1.78872 5.45455 2.19231 5.45455H4.38462C4.78821 5.45455 5.11538 5.12893 5.11538 4.72727C5.11538 4.32561 4.78821 4 4.38462 4H2.19231C0.98153 4 0 4.97683 0 6.18182V17.8182Z" fill="black"/>
</svg>
