<svg width="15" height="14" viewBox="0 0 15 14" fill="none" xmlns="http://www.w3.org/2000/svg">
<path fill-rule="evenodd" clip-rule="evenodd" d="M1.5 12.2929V5.79289H2.5V12.2929C2.5 12.569 2.72386 12.7929 3 12.7929H12C12.2761 12.7929 12.5 12.569 12.5 12.2929V5.79289H13.5V12.2929C13.5 13.1213 12.8284 13.7929 12 13.7929H3C2.17157 13.7929 1.5 13.1213 1.5 12.2929Z" fill="black"/>
<path fill-rule="evenodd" clip-rule="evenodd" d="M12.5 1.29289V4.79289L10.5 2.79289V1.29289C10.5 1.01675 10.7239 0.792893 11 0.792893H12C12.2761 0.792893 12.5 1.01675 12.5 1.29289Z" fill="black"/>
<path fill-rule="evenodd" clip-rule="evenodd" d="M6.79289 0.292893C7.18342 -0.0976322 7.81658 -0.0976301 8.20711 0.292893L14.8536 6.93934C15.0488 7.1346 15.0488 7.45118 14.8536 7.64645C14.6583 7.84171 14.3417 7.84171 14.1464 7.64645L7.5 1L0.853553 7.64645C0.658291 7.84171 0.341709 7.84171 0.146447 7.64645C-0.0488155 7.45118 -0.0488155 7.1346 0.146447 6.93934L6.79289 0.292893Z" fill="black"/>
</svg>
