<svg width="66" height="66" viewBox="0 0 66 66" fill="none" xmlns="http://www.w3.org/2000/svg">
<path d="M16.794 27.9843L10.1989 34.5794C4.5662 40.2121 4.5662 49.3445 10.1989 54.9772C15.8316 60.6099 24.964 60.6099 30.5966 54.9772L39.3874 46.1865C45.02 40.5538 45.02 31.4214 39.3874 25.7887C38.1953 24.5967 36.8466 23.6569 35.4074 22.9694L32.5881 25.7887C32.2949 26.0819 32.0475 26.4035 31.8459 26.7447C33.3625 27.1792 34.7932 27.9938 35.9877 29.1884C39.7429 32.9435 39.7429 39.0317 35.9877 42.7869L27.197 51.5776C23.4419 55.3327 17.3536 55.3327 13.5985 51.5776C9.84339 47.8225 9.84339 41.7342 13.5985 37.9791L17.4092 34.1684C16.8698 32.1485 16.6647 30.0579 16.794 27.9843Z" fill="black"/>
<path d="M21.5865 29.991L22.3892 29.1884C23.6277 27.9499 25.1199 27.1199 26.6985 26.6984C27.12 25.1198 27.95 23.6275 29.1885 22.3891L29.9911 21.5864C27.5975 21.4538 25.1772 21.9148 22.9696 22.9694C21.915 25.1771 21.4539 27.5974 21.5865 29.991Z" fill="black"/>
<path d="M25.7888 18.9895C20.1562 24.6222 20.1562 33.7545 25.7888 39.3872C26.9809 40.5793 28.3296 41.519 29.7688 42.2065L33.4977 38.4776C31.9191 38.0561 30.4269 37.2261 29.1885 35.9876C25.4334 32.2325 25.4333 26.1442 29.1885 22.3891L37.9792 13.5984C41.7343 9.84326 47.8226 9.84326 51.5777 13.5984C55.3328 17.3535 55.3328 23.4418 51.5777 27.1969L47.767 31.0076C48.3064 33.0275 48.5115 35.118 48.3822 37.1917L54.9773 30.5965C60.61 24.9638 60.61 15.8314 54.9773 10.1988C49.3446 4.56607 40.2122 4.56607 34.5796 10.1988L25.7888 18.9895Z" fill="black"/>
<path d="M42.2067 42.2065C43.2613 39.9989 43.7223 37.5785 43.5897 35.1849L42.787 35.9876C41.5485 37.2261 40.0563 38.0561 38.4777 38.4776C38.0562 40.0562 37.2262 41.5484 35.9877 42.7869L35.1851 43.5895C37.5787 43.7221 39.999 43.2611 42.2067 42.2065Z" fill="black"/>
</svg>
