<svg xmlns="http://www.w3.org/2000/svg" viewBox="0 0 42.15 22.75"><defs><style>.cls-1{fill:#fff;}</style></defs><title>Zasób 1</title><g id="Warstwa_2" data-name="Warstwa 2"><g id="Layer_1" data-name="Layer 1"><path class="cls-1" d="M12.72,22.55v-8.5h-3A25.46,25.46,0,0,1,5,13.72a6.46,6.46,0,0,1-2.36-1.07A6.08,6.08,0,0,1,.75,10.43,7.38,7.38,0,0,1,0,6.94,7,7,0,0,1,1.31,2.55,5.88,5.88,0,0,1,4.55.34,26.18,26.18,0,0,1,10,0h7.31V22.55ZM10.52,3.82A22.3,22.3,0,0,0,7.25,4,3.14,3.14,0,0,0,5.42,5a2.88,2.88,0,0,0-.73,2,3,3,0,0,0,.52,1.75A2.92,2.92,0,0,0,6.63,9.86a11.63,11.63,0,0,0,3.6.36h2.49V3.82Z"/><path class="cls-1" d="M26.21,22.75V12.89H17.28v9.86H12.73V.2h4.55V9.07h8.93V.2h4.55V22.75Z"/><path class="cls-1" d="M26.28,22.66V.29h4.55V18.86H42.15v3.8Z"/></g></g></svg>