<svg width="29" height="29" viewBox="0 0 29 29" fill="none" xmlns="http://www.w3.org/2000/svg">
<g clip-path="url(#clip0)">
<path d="M25.9792 21.75H22.3542C22.0207 21.75 21.75 21.4793 21.75 21.1458C21.75 20.8123 22.0207 20.5417 22.3542 20.5417H25.9792C26.9785 20.5417 27.7917 19.7285 27.7917 18.7292V10.2708C27.7917 9.27154 26.9785 8.45833 25.9792 8.45833H3.02083C2.02154 8.45833 1.20833 9.27154 1.20833 10.2708V18.7292C1.20833 19.7285 2.02154 20.5417 3.02083 20.5417H6.64583C6.97933 20.5417 7.25 20.8123 7.25 21.1458C7.25 21.4793 6.97933 21.75 6.64583 21.75H3.02083C1.35454 21.75 0 20.3943 0 18.7292V10.2708C0 8.60575 1.35454 7.25 3.02083 7.25H25.9792C27.6455 7.25 29 8.60575 29 10.2708V18.7292C29 20.3943 27.6455 21.75 25.9792 21.75Z" fill="#979797"/>
<path d="M17.5207 25.3748H10.2707C9.93717 25.3748 9.6665 25.1042 9.6665 24.7707C9.6665 24.4372 9.93717 24.1665 10.2707 24.1665H17.5207C17.8542 24.1665 18.1248 24.4372 18.1248 24.7707C18.1248 25.1042 17.8542 25.3748 17.5207 25.3748Z" fill="#979797"/>
<path d="M17.5207 22.9583H10.2707C9.93717 22.9583 9.6665 22.6877 9.6665 22.3542C9.6665 22.0207 9.93717 21.75 10.2707 21.75H17.5207C17.8542 21.75 18.1248 22.0207 18.1248 22.3542C18.1248 22.6877 17.8542 22.9583 17.5207 22.9583Z" fill="#979797"/>
<path d="M12.6873 20.5416H10.2707C9.93717 20.5416 9.6665 20.2709 9.6665 19.9374C9.6665 19.6039 9.93717 19.3333 10.2707 19.3333H12.6873C13.0208 19.3333 13.2915 19.6039 13.2915 19.9374C13.2915 20.2709 13.0208 20.5416 12.6873 20.5416Z" fill="#979797"/>
<path d="M22.354 8.45833C22.0205 8.45833 21.7498 8.18767 21.7498 7.85417V3.02083C21.7498 2.02154 20.9366 1.20833 19.9373 1.20833H9.06234C8.06305 1.20833 7.24984 2.02154 7.24984 3.02083V7.85417C7.24984 8.18767 6.97917 8.45833 6.64567 8.45833C6.31217 8.45833 6.0415 8.18767 6.0415 7.85417V3.02083C6.0415 1.35575 7.39605 0 9.06234 0H19.9373C21.6036 0 22.9582 1.35575 22.9582 3.02083V7.85417C22.9582 8.18767 22.6875 8.45833 22.354 8.45833Z" fill="#979797"/>
<path d="M19.9373 28.9999H9.06234C7.39605 28.9999 6.0415 27.6442 6.0415 25.9791V16.3124C6.0415 15.9789 6.31217 15.7083 6.64567 15.7083H22.354C22.6875 15.7083 22.9582 15.9789 22.9582 16.3124V25.9791C22.9582 27.6442 21.6036 28.9999 19.9373 28.9999ZM7.24984 16.9166V25.9791C7.24984 26.9784 8.06305 27.7916 9.06234 27.7916H19.9373C20.9366 27.7916 21.7498 26.9784 21.7498 25.9791V16.9166H7.24984Z" fill="#979797"/>
</g>
<defs>
<clipPath id="clip0">
<rect width="29" height="29" fill="white"/>
</clipPath>
</defs>
</svg>
