<svg width="10" height="6" viewBox="0 0 10 6" fill="none" xmlns="http://www.w3.org/2000/svg">
<path fill-rule="evenodd" clip-rule="evenodd" d="M0.281429 1.6755L0.284286 1.674C0.11 1.4955 0 1.26 0 0.999C0 0.4485 0.48 0 1.07143 0C1.38429 0 1.66286 0.1275 1.85857 0.3255L1.86 0.324L5 3.519L8.13857 0.324L8.14143 0.3255C8.33714 0.1275 8.61571 0 8.92857 0C9.52 0 10 0.4485 10 0.999C10 1.26 9.89 1.4955 9.71571 1.674L9.71857 1.6755L5.79 5.676C5.58714 5.8815 5.3 6 5 6C4.69857 6 4.41286 5.8815 4.21 5.676L0.281429 1.6755Z" fill="#E36556"/>
</svg>
